<svg xmlns="http://www.w3.org/2000/svg" width="1680" height="820" viewBox="0 0 1680 820" fill="none">
  <defs>
    <style>
      .l { stroke:#111; stroke-width:2; fill:none; stroke-linejoin:round; stroke-linecap:round; }
      .t { font-family:"Courier New", monospace; font-size:13px; fill:#111; }
      .th { font-family:"Courier New", monospace; font-size:28px; font-weight:700; fill:#111; }
      .ts { font-family:"Courier New", monospace; font-size:11px; fill:#111; }
    </style>
  </defs>
  <rect x="4" y="4" width="1672" height="812" class="l"/>
  <rect x="4" y="4" width="250" height="812" class="l"/>
  <text x="20" y="30" class="ts">INTERNAL SYSTEM</text>
  <text x="20" y="60" class="th" style="font-size:40px;">Exit Permit+</text>
  <text x="20" y="82" class="t">Operational Management Portal</text>
  <line x1="18" y1="106" x2="232" y2="106" class="l"/>
  <rect x="20" y="144" width="212" height="34" rx="8" class="l"/>
  <text x="36" y="166" class="t">Dashboard</text>
  <text x="36" y="206" class="t">List Exit Permit</text>
  <text x="36" y="246" class="t">Exit Permit</text>
  <text x="36" y="286" class="t">Exit Permit Approval</text>
  <text x="36" y="326" class="t">Order Meal</text>
  <text x="36" y="366" class="t">Reimbursement</text>
  <text x="36" y="406" class="t">Profile</text>

  <rect x="20" y="456" width="212" height="100" rx="12" class="l"/>
  <circle cx="44" cy="486" r="14" class="l"/>
  <text x="62" y="482" class="t">Sisca Dewiyani</text>
  <text x="62" y="502" class="ts">payroll.hr@thaisummit.co.id</text>
  <rect x="32" y="516" width="38" height="20" rx="10" class="l"/>
  <text x="42" y="530" class="ts">HR</text>

  <rect x="254" y="4" width="1422" height="46" class="l"/>
  <text x="470" y="34" class="th">Dashboard</text>
  <rect x="1380" y="10" width="162" height="34" rx="6" class="l"/>
  <circle cx="1402" cy="27" r="10" class="l"/>
  <text x="1420" y="31" class="t">Sisca Dewiyani</text>

  <rect x="254" y="50" width="1422" height="766" class="l"/>

  <rect x="470" y="80" width="252" height="106" rx="12" class="l"/>
  <rect x="742" y="80" width="252" height="106" rx="12" class="l"/>
  <rect x="1014" y="80" width="252" height="106" rx="12" class="l"/>
  <rect x="1288" y="80" width="252" height="106" rx="12" class="l"/>

  <text x="490" y="112" class="t">Total Exit Permit</text>
  <text x="490" y="160" class="th" style="font-size:52px;">0</text>
  <text x="762" y="112" class="t">Exit Permit Approval</text>
  <text x="762" y="160" class="th" style="font-size:52px;">10</text>
  <text x="1034" y="112" class="t">Exit Permit Eligible Meal</text>
  <text x="1034" y="160" class="th" style="font-size:52px;">1</text>
  <text x="1308" y="112" class="t">Total Reimbursement Approved</text>
  <text x="1308" y="160" class="th" style="font-size:52px;">Rp 0</text>

  <rect x="470" y="208" width="252" height="156" rx="12" class="l"/>
  <text x="490" y="242" class="t">Sisa Paket Makan Siang</text>
  <text x="490" y="286" class="th" style="font-size:50px;">141</text>

  <rect x="742" y="208" width="528" height="156" rx="12" class="l"/>
  <text x="762" y="242" class="t">Ringkasan Lunch Pack</text>
  <rect x="762" y="262" width="154" height="82" rx="8" class="l"/>
  <rect x="926" y="262" width="154" height="82" rx="8" class="l"/>
  <rect x="1092" y="262" width="154" height="82" rx="8" class="l"/>
  <text x="776" y="288" class="t">Disediakan</text>
  <text x="776" y="324" class="th" style="font-size:46px;">426</text>
  <text x="940" y="288" class="t">Realisasi</text>
  <text x="940" y="324" class="th" style="font-size:46px;">285</text>
  <text x="1106" y="288" class="t">Sisa</text>
  <text x="1106" y="324" class="th" style="font-size:46px;">141</text>

  <rect x="470" y="388" width="526" height="352" rx="12" class="l"/>
  <text x="490" y="422" class="th" style="font-size:30px;">Trend Order Meal</text>
  <text x="490" y="444" class="t">Perbandingan paket disediakan, realita makan, dan sisa paket per hari.</text>
  <circle cx="494" cy="468" r="5" class="l"/><text x="506" y="472" class="ts">Disediakan</text>
  <circle cx="578" cy="468" r="5" class="l"/><text x="590" y="472" class="ts">Realisasi</text>
  <circle cx="646" cy="468" r="5" class="l"/><text x="658" y="472" class="ts">Sisa</text>

  <line x1="510" y1="518" x2="968" y2="518" class="l"/>
  <line x1="510" y1="558" x2="968" y2="558" class="l"/>
  <line x1="510" y1="598" x2="968" y2="598" class="l"/>
  <line x1="510" y1="638" x2="968" y2="638" class="l"/>
  <line x1="510" y1="678" x2="968" y2="678" class="l"/>

  <rect x="580" y="582" width="14" height="96" class="l"/>
  <rect x="598" y="590" width="14" height="88" class="l"/>
  <rect x="616" y="670" width="14" height="8" class="l"/>
  <rect x="764" y="582" width="14" height="96" class="l"/>
  <rect x="800" y="582" width="14" height="96" class="l"/>
  <rect x="950" y="518" width="14" height="160" class="l"/>
  <rect x="968" y="532" width="14" height="146" class="l"/>

  <rect x="510" y="706" width="356" height="10" rx="5" class="l"/>
  <text x="12" y="812" class="ts">Wireframe dashboard HR - low fidelity black/white sketch</text>
</svg>
