<svg xmlns="http://www.w3.org/2000/svg" width="1365" height="770" viewBox="0 0 1365 770" fill="none">
  <defs>
    <style>
      .l { stroke:#111; stroke-width:2; fill:none; stroke-linecap:round; stroke-linejoin:round; }
      .t { font-family:"Courier New", monospace; font-size:12px; fill:#111; }
      .th { font-family:"Courier New", monospace; font-size:20px; font-weight:700; fill:#111; }
      .ts { font-family:"Courier New", monospace; font-size:10px; fill:#111; }
    </style>
  </defs>

  <rect x="4" y="4" width="1357" height="762" class="l"/>

  <!-- Sidebar -->
  <rect x="4" y="4" width="132" height="762" class="l"/>
  <text x="12" y="28" class="th">Exit Permit+</text>
  <text x="12" y="40" class="ts">Operational Management Portal</text>
  <line x1="12" y1="48" x2="124" y2="48" class="l"/>
  <text x="18" y="82" class="t">Dashboard</text>
  <text x="18" y="104" class="t">Exit Permit</text>
  <text x="18" y="126" class="t">Reimbursement</text>
  <text x="18" y="148" class="t">Profile</text>
  <rect x="14" y="200" width="104" height="50" rx="6" class="l"/>
  <circle cx="28" cy="215" r="7" class="l"/>
  <text x="40" y="216" class="ts">Indri</text>
  <text x="40" y="228" class="ts">indri@example.com</text>
  <rect x="18" y="232" width="24" height="10" rx="2" class="l"/>
  <text x="21" y="239" class="ts">USR</text>

  <!-- Topbar -->
  <rect x="136" y="4" width="1225" height="36" class="l"/>
  <text x="474" y="28" class="th">Exit Permit Form</text>
  <rect x="950" y="10" width="50" height="24" rx="4" class="l"/>
  <circle cx="962" cy="22" r="6" class="l"/>
  <text x="972" y="26" class="ts">Indri</text>

  <!-- Main -->
  <rect x="136" y="40" width="1225" height="726" class="l"/>

  <!-- Header info cards -->
  <rect x="474" y="74" width="524" height="32" rx="6" class="l"/>
  <line x1="650" y1="74" x2="650" y2="106" class="l"/>
  <line x1="826" y1="74" x2="826" y2="106" class="l"/>
  <text x="482" y="87" class="ts">CURRENT ELIGIBILITY</text>
  <text x="482" y="98" class="ts">Ya, memenuhi ketentuan meal</text>
  <text x="658" y="87" class="ts">KENDARAAN</text>
  <text x="658" y="98" class="ts">Toyota Avanza - Aldin Kertayasa</text>
  <text x="834" y="87" class="ts">APPROVAL STAGE</text>
  <rect x="834" y="90" width="96" height="12" rx="6" class="l"/>
  <text x="840" y="99" class="ts">WAITING MANAGER APPROVAL</text>

  <!-- Form shell -->
  <rect x="474" y="118" width="524" height="648" rx="8" class="l"/>
  <rect x="474" y="118" width="524" height="40" class="l"/>
  <text x="682" y="132" class="ts">OFFICIAL DOCUMENT</text>
  <text x="652" y="150" class="th">EXIT PERMIT FORM</text>

  <rect x="474" y="158" width="524" height="14" class="l"/>
  <rect x="474" y="158" width="16" height="14" class="l"/>
  <text x="479" y="168" class="ts">1</text>
  <text x="500" y="168" class="ts">FOR REQUESTOR</text>

  <!-- table -->
  <rect x="484" y="182" width="504" height="58" class="l"/>
  <line x1="484" y1="198" x2="988" y2="198" class="l"/>
  <line x1="506" y1="182" x2="506" y2="240" class="l"/>
  <line x1="580" y1="182" x2="580" y2="240" class="l"/>
  <line x1="672" y1="182" x2="672" y2="240" class="l"/>
  <line x1="764" y1="182" x2="764" y2="240" class="l"/>
  <line x1="866" y1="182" x2="866" y2="240" class="l"/>
  <text x="488" y="194" class="ts">NO</text>
  <text x="514" y="194" class="ts">NAME</text>
  <text x="588" y="194" class="ts">EMPLOYEE ID</text>
  <text x="680" y="194" class="ts">POSITION</text>
  <text x="772" y="194" class="ts">DEPARTMENT</text>
  <text x="874" y="194" class="ts">LUNCH (Y/N)</text>

  <rect x="484" y="248" width="504" height="20" rx="4" class="l"/>
  <text x="488" y="261" class="ts">Data requestor tersimpan ke database dan dapat diubah selama request masih pending.</text>
  <rect x="904" y="252" width="42" height="12" rx="3" class="l"/>
  <text x="910" y="261" class="ts">+Tambah</text>
  <rect x="950" y="252" width="36" height="12" rx="3" class="l"/>
  <text x="954" y="261" class="ts">Hapus</text>

  <rect x="484" y="276" width="504" height="46" rx="4" class="l"/>
  <line x1="732" y1="276" x2="732" y2="322" class="l"/>
  <text x="490" y="289" class="ts">1.2 Request permit date</text>
  <rect x="490" y="296" width="236" height="18" rx="3" class="l"/>
  <text x="738" y="289" class="ts">Reason</text>
  <rect x="738" y="296" width="124" height="18" rx="3" class="l"/>
  <rect x="866" y="296" width="116" height="18" rx="3" class="l"/>

  <text x="484" y="336" class="ts">Destination</text>
  <rect x="484" y="340" width="504" height="18" rx="3" class="l"/>
  <text x="484" y="374" class="ts">Exit from factory on time</text>
  <text x="632" y="374" class="ts">Plan back time</text>
  <rect x="484" y="378" width="142" height="18" rx="3" class="l"/>
  <rect x="632" y="378" width="176" height="18" rx="3" class="l"/>
  <rect x="816" y="378" width="172" height="30" rx="4" class="l"/>
  <rect x="824" y="387" width="8" height="8" rx="2" class="l"/>
  <text x="838" y="393" class="ts">Comeback to factory today</text>

  <text x="484" y="424" class="ts">1.3 Order Car</text>
  <rect x="490" y="428" width="20" height="12" rx="2" class="l"/>
  <text x="494" y="437" class="ts">Yes</text>
  <rect x="514" y="428" width="20" height="12" rx="2" class="l"/>
  <text x="518" y="437" class="ts">No</text>
  <rect x="484" y="448" width="504" height="26" rx="4" class="l"/>
  <text x="490" y="462" class="ts">No. Polisi: B 1120 NZX</text>
  <text x="490" y="472" class="ts">Supir: Aldin Kertayasa</text>

  <text x="484" y="492" class="ts">1.5 Detail the reasons</text>
  <rect x="484" y="496" width="504" height="44" rx="3" class="l"/>

  <text x="484" y="556" class="ts">Attachment Foto (Opsional, Max 2MB)</text>
  <text x="484" y="568" class="ts">File saat ini: WhatsApp Image ...</text>
  <rect x="484" y="574" width="504" height="18" rx="3" class="l"/>

  <rect x="484" y="610" width="504" height="20" rx="4" class="l"/>
  <text x="490" y="623" class="ts">Please fill in properly, this document is attachment for gasoline, toll, parking and lunch reimbursement.</text>

  <rect x="474" y="640" width="524" height="14" class="l"/>
  <rect x="474" y="640" width="16" height="14" class="l"/>
  <text x="479" y="650" class="ts">2</text>
  <text x="500" y="650" class="ts">SPECIAL FULFILL BY SECURITY</text>
  <rect x="484" y="664" width="248" height="40" rx="4" class="l"/>
  <rect x="740" y="664" width="248" height="40" rx="4" class="l"/>
  <text x="490" y="679" class="ts">2.1 Exit from factory time</text>
  <text x="746" y="679" class="ts">2.2 Comeback to factory time</text>

  <!-- Footer -->
  <rect x="886" y="746" width="40" height="16" rx="3" class="l"/>
  <text x="894" y="757" class="ts">Kembali</text>
  <rect x="930" y="744" width="58" height="20" rx="4" class="l"/>
  <text x="936" y="758" class="ts">Update Exit Permit</text>

  <text x="12" y="760" class="ts">Wireframe edit exit permit (update mode) - low fidelity black/white sketch</text>
</svg>
