<svg xmlns="http://www.w3.org/2000/svg" width="1440" height="840" viewBox="0 0 1440 840" fill="none">
  <defs>
    <style>
      .l { stroke:#111; stroke-width:2; fill:none; stroke-linecap:round; stroke-linejoin:round; }
      .t { font-family:"Courier New", monospace; font-size:14px; fill:#111; }
      .th { font-family:"Courier New", monospace; font-size:18px; font-weight:700; fill:#111; }
      .ts { font-family:"Courier New", monospace; font-size:12px; fill:#111; }
    </style>
  </defs>

  <rect x="12" y="12" width="1416" height="816" class="l"/>

  <!-- Sidebar -->
  <rect x="20" y="20" width="190" height="800" class="l"/>
  <text x="34" y="62" class="ts">INTERNAL SYSTEM</text>
  <text x="34" y="90" class="th">Exit Permit+</text>
  <text x="34" y="112" class="ts">Operational Management Portal</text>
  <line x1="34" y1="132" x2="190" y2="132" class="l"/>

  <text x="36" y="176" class="t">Dashboard</text>
  <rect x="28" y="194" width="166" height="28" rx="6" class="l"/>
  <text x="38" y="213" class="t">Exit Permit</text>
  <text x="36" y="244" class="t">Reimbursement</text>
  <text x="36" y="278" class="t">Profile</text>

  <rect x="28" y="316" width="166" height="84" rx="8" class="l"/>
  <circle cx="52" cy="342" r="12" class="l"/>
  <text x="72" y="338" class="t">Indri</text>
  <text x="72" y="356" class="ts">indri@example.com</text>
  <rect x="38" y="366" width="34" height="16" rx="4" class="l"/>
  <text x="43" y="378" class="ts">USER</text>

  <!-- Top bar -->
  <rect x="210" y="20" width="1218" height="46" class="l"/>
  <text x="392" y="49" class="th">Exit Permit</text>
  <rect x="1200" y="26" width="90" height="34" rx="4" class="l"/>
  <circle cx="1222" cy="43" r="10" class="l"/>
  <text x="1240" y="47" class="ts">Indri</text>

  <!-- Content area -->
  <rect x="210" y="66" width="1218" height="754" class="l"/>

  <!-- Hero section -->
  <rect x="390" y="94" width="900" height="92" rx="10" class="l"/>
  <text x="406" y="120" class="ts">PERSONAL REQUEST</text>
  <text x="406" y="146" class="th">EXIT PERMIT PENGAJUAN PRIBADI</text>
  <text x="406" y="168" class="ts">Menu khusus user untuk membuat dan memantau pengajuan.</text>
  <rect x="1146" y="128" width="138" height="30" rx="6" class="l"/>
  <text x="1158" y="148" class="ts">+ Tambah Exit Permit</text>

  <!-- Stats cards -->
  <rect x="390" y="206" width="286" height="72" rx="8" class="l"/>
  <text x="404" y="228" class="ts">TOTAL DATA</text>
  <text x="404" y="260" class="th">7</text>

  <rect x="680" y="206" width="286" height="72" rx="8" class="l"/>
  <text x="694" y="228" class="ts">APPROVED</text>
  <text x="694" y="260" class="th">7</text>

  <rect x="970" y="206" width="320" height="72" rx="8" class="l"/>
  <text x="984" y="228" class="ts">ELIGIBLE MEAL</text>
  <text x="984" y="260" class="th">0</text>

  <!-- Table -->
  <rect x="390" y="296" width="900" height="402" rx="10" class="l"/>
  <line x1="390" y1="326" x2="1290" y2="326" class="l"/>

  <!-- Table columns -->
  <line x1="462" y1="296" x2="462" y2="698" class="l"/>
  <line x1="548" y1="296" x2="548" y2="698" class="l"/>
  <line x1="650" y1="296" x2="650" y2="698" class="l"/>
  <line x1="770" y1="296" x2="770" y2="698" class="l"/>
  <line x1="824" y1="296" x2="824" y2="698" class="l"/>
  <line x1="962" y1="296" x2="962" y2="698" class="l"/>
  <line x1="1214" y1="296" x2="1214" y2="698" class="l"/>

  <text x="400" y="316" class="ts">KARYAWAN</text>
  <text x="472" y="316" class="ts">TANGGAL</text>
  <text x="560" y="316" class="ts">JENIS</text>
  <text x="662" y="316" class="ts">TUJUAN</text>
  <text x="782" y="316" class="ts">MEAL</text>
  <text x="836" y="316" class="ts">STATUS</text>
  <text x="976" y="316" class="ts">TAHAP APPROVAL</text>
  <text x="1226" y="316" class="ts">AKSI</text>

  <!-- Rows (simplified strokes) -->
  <line x1="390" y1="366" x2="1290" y2="366" class="l"/>
  <line x1="390" y1="406" x2="1290" y2="406" class="l"/>
  <line x1="390" y1="446" x2="1290" y2="446" class="l"/>
  <line x1="390" y1="486" x2="1290" y2="486" class="l"/>
  <line x1="390" y1="526" x2="1290" y2="526" class="l"/>
  <line x1="390" y1="566" x2="1290" y2="566" class="l"/>
  <line x1="390" y1="606" x2="1290" y2="606" class="l"/>
  <line x1="390" y1="646" x2="1290" y2="646" class="l"/>

  <text x="24" y="822" class="ts">Wireframe exit permit page - low fidelity black/white sketch</text>
</svg>
