<svg xmlns="http://www.w3.org/2000/svg" width="1430" height="790" viewBox="0 0 1430 790" fill="none">
  <defs>
    <style>
      .l { stroke:#111; stroke-width:2; fill:none; stroke-linecap:round; stroke-linejoin:round; }
      .t { font-family:"Courier New", monospace; font-size:12px; fill:#111; }
      .th { font-family:"Courier New", monospace; font-size:18px; font-weight:700; fill:#111; }
      .ts { font-family:"Courier New", monospace; font-size:10px; fill:#111; }
    </style>
  </defs>
  <rect x="4" y="4" width="1422" height="782" class="l"/>
  <rect x="4" y="4" width="190" height="782" class="l"/>
  <text x="16" y="136" class="t">Dashboard</text>
  <text x="16" y="166" class="t">List Exit Permit</text>
  <text x="16" y="196" class="t">Exit Permit</text>
  <text x="16" y="226" class="t">Exit Permit Approval</text>
  <text x="16" y="256" class="t">Order Meal</text>
  <text x="16" y="286" class="t">Reimbursement</text>
  <text x="16" y="316" class="t">Profile</text>
  <rect x="16" y="362" width="160" height="76" rx="8" class="l"/>

  <rect x="194" y="4" width="1232" height="48" class="l"/>
  <text x="442" y="34" class="th">Edit Order Meal</text>
  <rect x="1142" y="10" width="118" height="34" rx="6" class="l"/>
  <circle cx="1162" cy="27" r="10" class="l"/>
  <text x="1180" y="31" class="t">Sisca Dewiyani</text>

  <rect x="194" y="52" width="1232" height="734" class="l"/>
  <rect x="442" y="76" width="820" height="54" rx="8" class="l"/>
  <text x="454" y="96" class="ts">MEAL MONITORING</text>
  <text x="454" y="114" class="t">Perbarui Order Meal untuk rekap operasional canteen.</text>

  <rect x="442" y="148" width="820" height="594" rx="12" class="l"/>

  <rect x="458" y="166" width="788" height="62" rx="8" class="l"/>
  <line x1="652" y1="166" x2="652" y2="228" class="l"/>
  <line x1="846" y1="166" x2="846" y2="228" class="l"/>
  <text x="470" y="184" class="ts">PAKET DISEDIAKAN</text>
  <text x="470" y="212" class="th" style="font-size:40px;">195</text>
  <text x="664" y="184" class="ts">REALISASI MAKAN</text>
  <text x="664" y="212" class="th" style="font-size:40px;">178</text>
  <text x="858" y="184" class="ts">SISA PAKET</text>
  <text x="858" y="212" class="th" style="font-size:40px;">17</text>

  <rect x="458" y="242" width="788" height="194" rx="8" class="l"/>
  <text x="470" y="260" class="th">Calculation for Catering Cost</text>
  <text x="470" y="288" class="t">Day Shift</text><rect x="470" y="296" width="182" height="24" rx="4" class="l"/>
  <text x="662" y="288" class="t">Overtime Day</text><rect x="662" y="296" width="182" height="24" rx="4" class="l"/>
  <text x="854" y="288" class="t">Night Shift</text><rect x="854" y="296" width="182" height="24" rx="4" class="l"/>
  <text x="1046" y="288" class="t">Overtime Night</text><rect x="1046" y="296" width="182" height="24" rx="4" class="l"/>
  <text x="470" y="344" class="t">Total</text><rect x="470" y="352" width="182" height="24" rx="4" class="l"/>
  <text x="662" y="344" class="t">Amount / Porsi</text><rect x="662" y="352" width="182" height="24" rx="4" class="l"/>
  <text x="854" y="344" class="t">Local Tax</text><rect x="854" y="352" width="182" height="24" rx="4" class="l"/>
  <text x="1046" y="344" class="t">Service Tax</text><rect x="1046" y="352" width="182" height="24" rx="4" class="l"/>
  <rect x="470" y="390" width="758" height="34" rx="6" class="l"/>
  <text x="482" y="412" class="t">Subtotal | Local Tax | Service Tax | Grand Total</text>

  <text x="458" y="460" class="t">Tanggal Makan</text>
  <text x="858" y="460" class="t">Menu Makan Siang</text>
  <rect x="458" y="468" width="388" height="24" rx="4" class="l"/>
  <rect x="858" y="468" width="388" height="24" rx="4" class="l"/>

  <text x="458" y="518" class="t">Paket Dasar Karyawan</text>
  <text x="724" y="518" class="t">Realisasi Makan</text>
  <rect x="458" y="526" width="254" height="24" rx="4" class="l"/>
  <rect x="724" y="526" width="254" height="24" rx="4" class="l"/>

  <rect x="458" y="564" width="788" height="30" rx="6" class="l"/>
  <text x="470" y="584" class="t">Total paket disediakan = day shift + overtime day + night shift + overtime night.</text>

  <text x="458" y="618" class="t">Catatan</text>
  <rect x="458" y="626" width="788" height="52" rx="4" class="l"/>

  <rect x="1138" y="700" width="54" height="26" rx="4" class="l"/>
  <text x="1152" y="718" class="t">Update</text>
  <rect x="1198" y="700" width="48" height="26" rx="4" class="l"/>
  <text x="1212" y="718" class="t">Batal</text>

  <text x="10" y="784" class="ts">Wireframe Order Meal edit - low fidelity black/white sketch</text>
</svg>
