<svg xmlns="http://www.w3.org/2000/svg" width="1365" height="770" viewBox="0 0 1365 770" fill="none">
  <defs>
    <style>
      .l { stroke:#111; stroke-width:2; fill:none; stroke-linejoin:round; stroke-linecap:round; }
      .t { font-family:"Courier New", monospace; font-size:12px; fill:#111; }
      .th { font-family:"Courier New", monospace; font-size:24px; font-weight:700; fill:#111; }
      .ts { font-family:"Courier New", monospace; font-size:10px; fill:#111; }
    </style>
  </defs>
  <rect x="4" y="4" width="1357" height="762" class="l"/>
  <rect x="4" y="4" width="180" height="762" class="l"/>
  <text x="20" y="28" class="t">Dashboard</text>
  <text x="20" y="54" class="t">Exit Permit</text>
  <text x="20" y="80" class="t">Reimbursement</text>
  <text x="20" y="106" class="t">Profile</text>
  <rect x="16" y="148" width="152" height="72" rx="8" class="l"/>
  <circle cx="36" cy="170" r="10" class="l"/>
  <text x="52" y="168" class="t">Indri</text>
  <text x="52" y="184" class="ts">indri@example.com</text>
  <rect x="24" y="192" width="30" height="14" rx="7" class="l"/>
  <text x="29" y="202" class="ts">USER</text>

  <rect x="184" y="4" width="1177" height="42" class="l"/>
  <text x="442" y="30" class="th">Ajukan Reimbursement</text>
  <rect x="1108" y="10" width="76" height="30" rx="5" class="l"/>
  <circle cx="1122" cy="25" r="7" class="l"/>
  <text x="1134" y="29" class="ts">Indri</text>

  <rect x="184" y="46" width="1177" height="720" class="l"/>
  <rect x="426" y="52" width="744" height="48" rx="8" class="l"/>
  <text x="438" y="72" class="t">Draft Konversi Lunch Box</text>
  <text x="438" y="88" class="ts">Requestor: 2 orang, nominal satuan Rp 12.000, total usulan Rp 24.000.</text>

  <rect x="426" y="110" width="744" height="626" rx="10" class="l"/>
  <text x="440" y="130" class="t">Exit Permit</text>
  <rect x="440" y="134" width="716" height="24" rx="4" class="l"/>

  <text x="440" y="182" class="t">Tgl Bayar</text>
  <text x="804" y="182" class="t">Dibayar Kepada</text>
  <rect x="440" y="186" width="352" height="24" rx="4" class="l"/>
  <rect x="804" y="186" width="352" height="24" rx="4" class="l"/>

  <text x="440" y="234" class="t">Biaya Order Meal</text>
  <text x="804" y="234" class="t">Biaya Bensin</text>
  <rect x="440" y="238" width="352" height="24" rx="4" class="l"/>
  <rect x="804" y="238" width="352" height="24" rx="4" class="l"/>

  <text x="440" y="286" class="t">Biaya Tol</text>
  <text x="804" y="286" class="t">Jumlah / Amount</text>
  <rect x="440" y="290" width="352" height="24" rx="4" class="l"/>
  <rect x="804" y="290" width="352" height="24" rx="4" class="l"/>

  <text x="440" y="338" class="t">Terbilang</text>
  <rect x="440" y="342" width="352" height="24" rx="4" class="l"/>

  <text x="440" y="390" class="t">Jenis Biaya / Expense Type</text>
  <rect x="440" y="394" width="716" height="24" rx="4" class="l"/>

  <text x="440" y="442" class="t">Tujuan / Purpose</text>
  <rect x="440" y="446" width="716" height="50" rx="4" class="l"/>

  <text x="440" y="542" class="t">Dok Ref / Attachment</text>
  <rect x="440" y="556" width="716" height="60" rx="8" class="l"/>
  <line x1="780" y1="556" x2="780" y2="616" class="l"/>
  <text x="450" y="574" class="ts">DOK REF</text>
  <text x="790" y="574" class="ts">ATTACHMENT (JPG/PNG/PDF)</text>
  <rect x="448" y="582" width="324" height="22" rx="4" class="l"/>
  <rect x="788" y="582" width="330" height="22" rx="4" class="l"/>
  <rect x="1086" y="590" width="34" height="18" rx="4" class="l"/>
  <text x="1094" y="603" class="ts">Hapus</text>

  <text x="440" y="640" class="t">Catatan Tambahan</text>
  <rect x="440" y="646" width="716" height="62" rx="4" class="l"/>

  <rect x="994" y="734" width="50" height="22" rx="4" class="l"/>
  <text x="1006" y="749" class="ts">Kembali</text>
  <rect x="1052" y="734" width="104" height="22" rx="4" class="l"/>
  <text x="1062" y="749" class="ts">Submit Reimbursement</text>

  <text x="10" y="760" class="ts">Wireframe reimbursement create - low fidelity black/white sketch</text>
</svg>
