<svg xmlns="http://www.w3.org/2000/svg" width="1510" height="770" viewBox="0 0 1510 770" fill="none">
  <defs>
    <style>
      .l { stroke:#111; stroke-width:2; fill:none; stroke-linejoin:round; stroke-linecap:round; }
      .t { font-family:"Courier New", monospace; font-size:12px; fill:#111; }
      .th { font-family:"Courier New", monospace; font-size:22px; font-weight:700; fill:#111; }
      .ts { font-family:"Courier New", monospace; font-size:10px; fill:#111; }
    </style>
  </defs>
  <rect x="4" y="4" width="1502" height="762" class="l"/>

  <rect x="4" y="4" width="180" height="762" class="l"/>
  <text x="20" y="30" class="ts">INTERNAL SYSTEM</text>
  <text x="20" y="62" class="th" style="font-size:34px;">Exit Permit+</text>
  <text x="20" y="80" class="t">Operational Management Portal</text>
  <line x1="14" y1="104" x2="170" y2="104" class="l"/>
  <text x="20" y="144" class="t">Dashboard</text>
  <text x="20" y="170" class="t">Exit Permit</text>
  <text x="20" y="196" class="t">Reimbursement</text>
  <text x="20" y="222" class="t">Profile</text>
  <rect x="12" y="206" width="122" height="58" rx="8" class="l"/>

  <rect x="184" y="4" width="1322" height="36" class="l"/>
  <text x="526" y="29" class="th">Detail Reimbursement</text>
  <rect x="1086" y="10" width="60" height="24" rx="4" class="l"/>
  <circle cx="1098" cy="22" r="6" class="l"/>
  <text x="1110" y="26" class="ts">Indri</text>

  <rect x="184" y="40" width="1322" height="726" class="l"/>
  <rect x="528" y="56" width="620" height="46" rx="8" class="l"/>
  <text x="540" y="74" class="ts">REIMBURSEMENT STATUS</text>
  <rect x="540" y="78" width="140" height="16" rx="8" class="l"/>
  <text x="548" y="89" class="ts">SUDAH DIBAYARKAN OLEH ACCOUNTING</text>

  <rect x="528" y="114" width="620" height="604" rx="10" class="l"/>
  <line x1="838" y1="114" x2="838" y2="718" class="l"/>

  <text x="540" y="136" class="ts">EXIT PERMIT</text>
  <text x="540" y="150" class="t">#6 | 2026-05-08 | Ke Bekasi</text>
  <text x="848" y="136" class="ts">STATUS</text>
  <text x="848" y="150" class="t">finished</text>

  <text x="540" y="170" class="t">Tgl Bayar</text>
  <text x="848" y="170" class="t">Dibayar Kepada</text>
  <rect x="540" y="174" width="286" height="20" rx="4" class="l"/>
  <rect x="848" y="174" width="286" height="20" rx="4" class="l"/>

  <text x="540" y="206" class="t">Biaya Order Meal</text>
  <text x="848" y="206" class="t">Biaya Bensin</text>
  <rect x="540" y="210" width="286" height="20" rx="4" class="l"/>
  <rect x="848" y="210" width="286" height="20" rx="4" class="l"/>

  <text x="540" y="242" class="t">Biaya Tol</text>
  <text x="848" y="242" class="t">Jumlah / Amount</text>
  <rect x="540" y="246" width="286" height="20" rx="4" class="l"/>
  <rect x="848" y="246" width="286" height="20" rx="4" class="l"/>

  <text x="540" y="286" class="t">Terbilang / Stated</text>
  <rect x="540" y="290" width="286" height="22" rx="4" class="l"/>

  <text x="540" y="334" class="t">Jenis Biaya / Expense Type</text>
  <rect x="540" y="338" width="594" height="20" rx="4" class="l"/>

  <text x="540" y="382" class="t">Tujuan / Purpose</text>
  <rect x="540" y="388" width="594" height="40" rx="4" class="l"/>

  <text x="540" y="456" class="t">Dok Ref / Attachment</text>
  <rect x="540" y="466" width="594" height="58" rx="8" class="l"/>
  <line x1="836" y1="466" x2="836" y2="524" class="l"/>
  <text x="548" y="484" class="ts">DOK REF</text>
  <text x="844" y="484" class="ts">ATTACHMENT (JPG/PNG/PDF)</text>
  <rect x="548" y="488" width="280" height="18" rx="4" class="l"/>
  <rect x="844" y="488" width="282" height="18" rx="4" class="l"/>

  <rect x="540" y="532" width="594" height="58" rx="8" class="l"/>
  <line x1="836" y1="532" x2="836" y2="590" class="l"/>
  <text x="548" y="550" class="ts">DOK REF</text>
  <text x="844" y="550" class="ts">ATTACHMENT (JPG/PNG/PDF)</text>
  <rect x="548" y="554" width="280" height="18" rx="4" class="l"/>
  <rect x="844" y="554" width="282" height="18" rx="4" class="l"/>

  <text x="540" y="612" class="t">Catatan Tambahan</text>
  <rect x="540" y="618" width="594" height="50" rx="4" class="l"/>

  <rect x="1090" y="688" width="44" height="18" rx="4" class="l"/>
  <text x="1100" y="701" class="ts">Kembali</text>

  <text x="12" y="762" class="ts">Wireframe reimbursement detail - low fidelity black/white sketch</text>
</svg>
