<svg xmlns="http://www.w3.org/2000/svg" width="1280" height="800" viewBox="0 0 1280 800" fill="none">
  <defs><style>.l{stroke:#111;stroke-width:2;fill:none;stroke-linecap:round;stroke-linejoin:round}.t{font-family:"Courier New",monospace;font-size:12px;fill:#111}.th{font-family:"Courier New",monospace;font-size:18px;font-weight:700;fill:#111}.ts{font-family:"Courier New",monospace;font-size:10px;fill:#111}</style></defs>
  <rect x="4" y="4" width="1272" height="792" class="l"/>
  <rect x="220" y="4" width="1056" height="42" class="l"/>
  <text x="220" y="30" class="th">Detail Reimbursement</text>
  <rect x="876" y="10" width="130" height="28" rx="4" class="l"/><circle cx="894" cy="24" r="8" class="l"/><text x="908" y="28" class="t">Wida Mustika Sari</text>
  <rect x="220" y="46" width="1056" height="750" class="l"/>
  <rect x="236" y="66" width="772" height="670" rx="10" class="l"/>
  <line x1="616" y1="66" x2="616" y2="736" class="l"/>
  <text x="236" y="90" class="t">Biaya Order Meal</text><text x="616" y="90" class="t">Biaya Bensin</text>
  <rect x="236" y="98" width="372" height="24" rx="4" class="l"/><rect x="616" y="98" width="372" height="24" rx="4" class="l"/>
  <text x="236" y="142" class="t">Biaya Tol</text><text x="616" y="142" class="t">Jumlah / Amount (Total Otomatis)</text>
  <rect x="236" y="150" width="372" height="24" rx="4" class="l"/><rect x="616" y="150" width="372" height="24" rx="4" class="l"/>
  <text x="236" y="206" class="t">Terbilang / Stated</text><rect x="236" y="214" width="372" height="24" rx="4" class="l"/>
  <text x="236" y="264" class="t">Jenis Biaya / Expense Type</text><rect x="236" y="272" width="752" height="24" rx="4" class="l"/>
  <text x="236" y="320" class="t">Tujuan / Purpose</text><rect x="236" y="330" width="752" height="50" rx="4" class="l"/>
  <text x="236" y="368" class="t">Dok Ref / Attachment</text>
  <rect x="236" y="382" width="752" height="76" rx="8" class="l"/><line x1="614" y1="382" x2="614" y2="458" class="l"/><rect x="246" y="408" width="360" height="24" rx="4" class="l"/><rect x="622" y="422" width="354" height="28" rx="4" class="l"/>
  <rect x="236" y="466" width="752" height="76" rx="8" class="l"/><line x1="614" y1="466" x2="614" y2="542" class="l"/><rect x="246" y="492" width="360" height="24" rx="4" class="l"/><rect x="622" y="506" width="354" height="28" rx="4" class="l"/>
  <text x="236" y="566" class="t">Catatan Tambahan</text><rect x="236" y="574" width="752" height="62" rx="4" class="l"/>
  <text x="236" y="660" class="t">Action</text><rect x="236" y="668" width="752" height="24" rx="4" class="l"/>
  <rect x="892" y="718" width="58" height="24" rx="4" class="l"/><text x="906" y="734" class="t">Kembali</text>
  <rect x="958" y="718" width="122" height="24" rx="4" class="l"/><text x="968" y="734" class="t">Submit Approval</text>
  <text x="8" y="794" class="ts">Wireframe reimbursement detail (manager approval) - low fidelity black/white sketch</text>
</svg>
