<svg xmlns="http://www.w3.org/2000/svg" width="1500" height="800" viewBox="0 0 1500 800" fill="none">
  <defs>
    <style>
      .l { stroke:#111; stroke-width:2; fill:none; stroke-linejoin:round; stroke-linecap:round; }
      .t { font-family:"Courier New", monospace; font-size:13px; fill:#111; }
      .th { font-family:"Courier New", monospace; font-size:18px; font-weight:700; fill:#111; }
      .ts { font-family:"Courier New", monospace; font-size:11px; fill:#111; }
    </style>
  </defs>
  <rect x="4" y="4" width="1492" height="792" class="l"/>

  <rect x="4" y="4" width="210" height="792" class="l"/>
  <text x="20" y="34" class="ts">INTERNAL SYSTEM</text>
  <text x="20" y="66" class="th" style="font-size:36px;">Exit Permit+</text>
  <text x="20" y="84" class="t">Operational Management Portal</text>
  <line x1="16" y1="108" x2="198" y2="108" class="l"/>
  <text x="20" y="160" class="t">Dashboard</text>
  <text x="20" y="196" class="t">Exit Permit</text>
  <rect x="14" y="214" width="182" height="30" rx="8" class="l"/>
  <text x="28" y="234" class="t">Reimbursement</text>
  <text x="20" y="272" class="t">Profile</text>

  <rect x="14" y="312" width="182" height="90" rx="10" class="l"/>
  <circle cx="34" cy="340" r="12" class="l"/>
  <text x="52" y="336" class="t">Indri</text>
  <text x="52" y="354" class="ts">indri@example.com</text>
  <rect x="24" y="366" width="40" height="18" rx="8" class="l"/>
  <text x="30" y="378" class="ts">USER</text>

  <rect x="214" y="4" width="1282" height="54" class="l"/>
  <text x="442" y="38" class="th" style="font-size:34px;">Reimbursement</text>
  <rect x="1284" y="14" width="92" height="32" rx="6" class="l"/>
  <circle cx="1300" cy="30" r="8" class="l"/>
  <text x="1314" y="34" class="t">Indri</text>

  <rect x="214" y="58" width="1282" height="738" class="l"/>
  <rect x="410" y="86" width="966" height="104" rx="12" class="l"/>
  <text x="428" y="114" class="ts">CLAIM FLOW</text>
  <text x="428" y="144" class="th" style="font-size:38px;">REIMBURSEMENT MONITORING</text>
  <text x="428" y="168" class="t">Alur persetujuan reimbursement: User, Manager, MD, Ratna, lalu Accounting.</text>
  <rect x="1204" y="124" width="152" height="30" rx="6" class="l"/>
  <text x="1216" y="144" class="t">+ Ajukan Reimbursement</text>

  <rect x="410" y="212" width="966" height="78" rx="10" class="l"/>
  <text x="426" y="236" class="t">TOTAL DATA</text>
  <text x="426" y="268" class="th" style="font-size:44px;">2</text>

  <rect x="410" y="310" width="966" height="110" rx="10" class="l"/>
  <line x1="410" y1="342" x2="1376" y2="342" class="l"/>
  <line x1="508" y1="310" x2="508" y2="420" class="l"/>
  <line x1="782" y1="310" x2="782" y2="420" class="l"/>
  <line x1="886" y1="310" x2="886" y2="420" class="l"/>
  <line x1="988" y1="310" x2="988" y2="420" class="l"/>
  <line x1="1086" y1="310" x2="1086" y2="420" class="l"/>
  <line x1="1292" y1="310" x2="1292" y2="420" class="l"/>
  <line x1="410" y1="380" x2="1376" y2="380" class="l"/>

  <text x="420" y="332" class="ts">KARYAWAN</text>
  <text x="518" y="332" class="ts">EXIT PERMIT</text>
  <text x="792" y="332" class="ts">TANGGAL</text>
  <text x="896" y="332" class="ts">NOMINAL</text>
  <text x="998" y="332" class="ts">STATUS</text>
  <text x="1096" y="332" class="ts">TAHAP</text>
  <text x="1302" y="332" class="ts">AKSI</text>

  <text x="420" y="364" class="t">Indri</text>
  <text x="518" y="364" class="t">#6 | 2026-05-08 | Ke Bekasi</text>
  <text x="792" y="364" class="t">2026-05-13</text>
  <text x="896" y="364" class="t">Rp 234.000</text>
  <rect x="998" y="350" width="58" height="22" rx="11" class="l"/>
  <text x="1008" y="365" class="ts">FINISHED</text>
  <text x="1096" y="364" class="ts">Sudah Dibayarkan oleh Accounting</text>
  <rect x="1304" y="350" width="44" height="20" rx="4" class="l"/>
  <text x="1314" y="364" class="ts">Detail</text>

  <text x="420" y="404" class="t">Indri</text>
  <text x="518" y="404" class="t">#2 | 2026-05-07 | Ke GIIC ITSP</text>
  <text x="792" y="404" class="t">2026-05-11</text>
  <text x="896" y="404" class="t">Rp 264.000</text>
  <rect x="998" y="390" width="58" height="22" rx="11" class="l"/>
  <text x="1008" y="405" class="ts">FINISHED</text>
  <text x="1096" y="404" class="ts">Sudah Dibayarkan oleh Accounting</text>
  <rect x="1304" y="390" width="44" height="20" rx="4" class="l"/>
  <text x="1314" y="404" class="ts">Detail</text>

  <text x="12" y="792" class="ts">Wireframe reimbursement list - low fidelity black/white sketch</text>
</svg>
